<?xml version="1.0" encoding="utf-8"?>
<svg version="1.1"
	 id="svg3476" inkscape:version="0.91 r13725" sodipodi:docname="CSS3.svg" xmlns:cc="http://creativecommons.org/ns#" xmlns:dc="http://purl.org/dc/elements/1.1/" xmlns:inkscape="http://www.inkscape.org/namespaces/inkscape" xmlns:rdf="http://www.w3.org/1999/02/22-rdf-syntax-ns#" xmlns:sodipodi="http://sodipodi.sourceforge.net/DTD/sodipodi-0.dtd" xmlns:svg="http://www.w3.org/2000/svg"
	 xmlns="http://www.w3.org/2000/svg" xmlns:xlink="http://www.w3.org/1999/xlink" x="0px" y="0px" width="50" height="50" viewBox="0 0 290.2 329.1"
	 style="enable-background:new 0 0 290.2 329.1;" xml:space="preserve">
<style type="text/css">
	.st0{fill:#264DE4;}
	.st1{fill:#2965F1;}
	.st2{fill:#EBEBEB;}
	.st3{fill:#FFFFFF;}
</style>
<sodipodi:namedview  bordercolor="#666666" borderopacity="1.0" fit-margin-bottom="0" fit-margin-left="0" fit-margin-right="0" fit-margin-top="0" id="base" inkscape:current-layer="layer1" inkscape:cx="181.367" inkscape:cy="256" inkscape:document-units="px" inkscape:pageopacity="0.0" inkscape:pageshadow="2" inkscape:window-height="704" inkscape:window-maximized="1" inkscape:window-width="1366" inkscape:window-x="0" inkscape:window-y="27" inkscape:zoom="0.35" pagecolor="#ffffff" showgrid="false">
	</sodipodi:namedview>
<g id="layer1" transform="translate(-193.633,-276.3622)" inkscape:groupmode="layer" inkscape:label="Calque 1">
	<g id="g3013" transform="translate(119,276.3622)">
		<polygon id="polygon2989" class="st0" points="364.8,0 338.4,296.2 219.5,329.1 101,296.2 74.6,0 		"/>
		<polygon id="polygon2991" class="st1" points="315.8,277.3 338.3,24.2 219.7,24.2 219.7,303.9 		"/>
		<polygon id="polygon2993" class="st2" points="135.2,134.1 138.4,170.4 219.7,170.4 219.7,134.1 		"/>
		<polygon id="polygon2995" class="st2" points="219.7,60.5 219.6,60.5 128.6,60.5 131.9,96.9 219.7,96.9 		"/>
		<polygon id="polygon2997" class="st2" points="219.7,266.2 219.7,228.4 219.6,228.5 179.1,217.5 176.5,188.6 156.9,188.6 
			140.1,188.6 145.1,245.6 219.6,266.3 		"/>
		<polygon id="polygon3005" class="st3" points="264.3,170.4 260.1,217.5 219.6,228.5 219.6,266.3 294.1,245.6 294.6,239.5 
			303.2,143.8 304,134.1 310.6,60.5 219.6,60.5 219.6,96.9 270.8,96.9 267.5,134.1 219.6,134.1 219.6,170.4 		"/>
	</g>
</g>
</svg>
