<?xml version="1.0" encoding="utf-8"?>
<svg version="1.1" id="Capa_1" xmlns="http://www.w3.org/2000/svg" xmlns:xlink="http://www.w3.org/1999/xlink" x="0px" y="0px" width="50" height="50"
	 viewBox="0 0 238.4 128.3" style="enable-background:new 0 0 238.4 128.3;" xml:space="preserve">
<style type="text/css">
	.st0{fill:#0868AC;}
	.st1{fill:#131B28;}
</style>
<path class="st0" d="M6,30.5c-8.3,12-7.3,27.6-0.9,40.3c0.2,0.3,0.3,0.6,0.5,0.9c0.1,0.2,0.2,0.4,0.3,0.6c0.1,0.1,0.1,0.2,0.2,0.3
	c0.1,0.2,0.2,0.4,0.3,0.6c0.2,0.3,0.4,0.7,0.6,1c0.1,0.2,0.2,0.4,0.3,0.6c0.2,0.4,0.5,0.7,0.7,1.1c0.1,0.2,0.2,0.3,0.3,0.5
	c0.3,0.5,0.7,1,1,1.5c0,0,0,0,0,0c0.1,0.1,0.1,0.2,0.2,0.2c0.3,0.4,0.6,0.8,0.9,1.2c0.1,0.1,0.2,0.3,0.4,0.4
	c0.3,0.4,0.6,0.7,0.9,1.1c0.1,0.1,0.2,0.3,0.3,0.4c0.4,0.5,0.8,0.9,1.2,1.4c0,0,0,0,0,0c0,0,0,0,0,0.1c0.4,0.4,0.8,0.9,1.2,1.3
	c0.1,0.1,0.3,0.3,0.4,0.4c0.3,0.3,0.6,0.6,1,1c0.1,0.1,0.3,0.3,0.4,0.4c0.4,0.4,0.9,0.8,1.3,1.2c0,0,0,0,0,0
	c0.1,0.1,0.2,0.1,0.2,0.2c0.4,0.3,0.8,0.7,1.2,1c0.2,0.1,0.3,0.3,0.5,0.4c0.3,0.3,0.7,0.5,1,0.8c0.2,0.1,0.4,0.3,0.5,0.4
	c0.4,0.3,0.8,0.5,1.1,0.8c0.1,0.1,0.3,0.2,0.4,0.3c0,0,0.1,0.1,0.1,0.1c0.4,0.2,0.7,0.5,1.1,0.7c0.2,0.1,0.3,0.2,0.5,0.3
	c0.6,0.4,1.1,0.7,1.7,1.1c0.2,0.1,0.3,0.2,0.5,0.3c0.4,0.2,0.9,0.5,1.3,0.7c0.2,0.1,0.5,0.2,0.7,0.4c0.3,0.2,0.6,0.3,0.9,0.5
	c0.1,0,0.1,0.1,0.2,0.1c0.1,0.1,0.3,0.1,0.4,0.2c0.5,0.2,1,0.5,1.5,0.7c0.1,0,0.2,0.1,0.3,0.1c0.6,0.2,1.1,0.5,1.7,0.7
	c0.1,0.1,0.3,0.1,0.4,0.2c0.5,0.2,1.1,0.4,1.6,0.6c0.1,0,0.1,0,0.2,0.1c0.6,0.2,1.2,0.4,1.8,0.6c0.1,0,0.3,0.1,0.4,0.1
	c0.6,0.2,1.2,0.4,1.9,0.5c40.3,7.4,52-24.2,52-24.2C82,87.4,64.6,90.8,48,87c-0.6-0.1-1.2-0.3-1.8-0.5c-0.2,0-0.3-0.1-0.5-0.1
	c-0.6-0.2-1.2-0.4-1.8-0.6c-0.1,0-0.2-0.1-0.2-0.1c-0.5-0.2-1-0.4-1.6-0.6C42,85,41.9,85,41.7,84.9c-0.6-0.2-1.1-0.5-1.7-0.7
	c-0.1,0-0.2-0.1-0.3-0.1c-0.5-0.2-1-0.4-1.4-0.7c-0.1-0.1-0.3-0.1-0.4-0.2c-0.4-0.2-0.7-0.4-1.1-0.6c-0.2-0.1-0.5-0.3-0.7-0.4
	c-0.4-0.2-0.9-0.5-1.3-0.7c-0.1-0.1-0.3-0.2-0.4-0.2c-0.6-0.3-1.2-0.7-1.7-1.1c-0.2-0.1-0.3-0.2-0.5-0.3c-0.4-0.3-0.8-0.5-1.2-0.8
	c-0.1-0.1-0.3-0.2-0.4-0.3c-0.4-0.3-0.8-0.6-1.2-0.8c-0.2-0.1-0.3-0.3-0.5-0.4c-0.4-0.3-0.7-0.5-1-0.8c-0.2-0.1-0.3-0.2-0.5-0.4
	c-0.4-0.4-0.9-0.7-1.3-1.1c0,0-0.1-0.1-0.1-0.1c-0.5-0.4-0.9-0.8-1.4-1.2c-0.1-0.1-0.3-0.2-0.4-0.4c-0.3-0.3-0.7-0.6-1-1
	c-0.1-0.1-0.3-0.3-0.4-0.4c-0.4-0.4-0.8-0.8-1.2-1.3c0,0,0,0-0.1-0.1c-0.4-0.5-0.8-0.9-1.2-1.4c-0.1-0.1-0.2-0.3-0.3-0.4
	c-0.3-0.4-0.6-0.7-0.9-1.1c-0.1-0.1-0.2-0.3-0.3-0.4c-0.3-0.4-0.7-0.9-1-1.4c-9.2-12.5-12.5-29.8-5.1-44"/>
<path class="st0" d="M31.9,20.4c-6,8.7-5.7,20.3-1,29.5c0.8,1.5,1.7,3,2.7,4.5c0.9,1.3,1.9,2.8,3.1,3.9c0.4,0.5,0.9,0.9,1.4,1.4
	c0.1,0.1,0.2,0.2,0.4,0.4c0.5,0.4,0.9,0.9,1.4,1.3c0,0,0,0,0.1,0c0,0,0,0,0,0c0.5,0.5,1.1,0.9,1.6,1.3c0.1,0.1,0.2,0.2,0.4,0.3
	c0.6,0.4,1.1,0.8,1.7,1.2c0,0,0,0,0,0c0.3,0.2,0.5,0.3,0.8,0.5c0.1,0.1,0.2,0.2,0.4,0.2c0.4,0.3,0.8,0.5,1.3,0.8
	c0.1,0,0.1,0.1,0.2,0.1c0.4,0.2,0.7,0.4,1.1,0.6c0.1,0.1,0.3,0.1,0.4,0.2c0.3,0.1,0.5,0.3,0.8,0.4c0,0,0.1,0,0.1,0.1
	c0.5,0.3,1.1,0.5,1.6,0.8c0.1,0.1,0.2,0.1,0.4,0.1c0.4,0.2,0.9,0.4,1.3,0.5c0.2,0.1,0.4,0.1,0.6,0.2c0.4,0.1,0.8,0.3,1.2,0.4
	c0.2,0.1,0.4,0.1,0.5,0.2c0.6,0.2,1.2,0.4,1.8,0.5C87,75,94.1,51,94.1,51c-6.5,9.3-19,13.8-32.4,10.3c-0.6-0.2-1.2-0.3-1.8-0.5
	c-0.2-0.1-0.4-0.1-0.5-0.2c-0.4-0.1-0.8-0.3-1.2-0.4c-0.2-0.1-0.4-0.1-0.6-0.2c-0.4-0.2-0.9-0.3-1.3-0.5c-0.1-0.1-0.2-0.1-0.4-0.2
	c-0.5-0.2-1.1-0.5-1.6-0.8c-0.3-0.1-0.5-0.3-0.8-0.4c-0.2-0.1-0.3-0.2-0.5-0.2c-0.3-0.2-0.7-0.4-1-0.6c-0.1,0-0.2-0.1-0.2-0.1
	c-0.4-0.2-0.8-0.5-1.2-0.8c-0.1-0.1-0.2-0.2-0.4-0.3c-0.3-0.2-0.5-0.4-0.8-0.5c-0.6-0.4-1.1-0.8-1.7-1.2c-0.1-0.1-0.3-0.2-0.4-0.3
	C41.4,49.5,36.8,43.2,34.6,36c-2.3-7.4-1.8-15.8,2.2-22.6"/>
<path class="st0" d="M53.6,12.9c-3.6,5.2-3.9,11.7-1.4,17.5c2.6,6.1,7.9,10.9,14.1,13.2c0.3,0.1,0.5,0.2,0.8,0.3
	c0.1,0,0.2,0.1,0.3,0.1c0.4,0.1,0.7,0.2,1.1,0.3c17.2,3.3,21.8-8.8,23.1-10.6c-4.1,5.9-10.9,7.3-19.4,5.2c-0.7-0.2-1.4-0.4-2-0.6
	c-0.8-0.3-1.6-0.6-2.4-1c-1.5-0.7-2.9-1.6-4.2-2.6C56,29,51.4,18.1,56.3,9.2"/>
<path class="st0" d="M267.1,105.9"/>
<path class="st1" d="M149.1,24.7h-16.9c-0.9,0-1.7,0.7-1.9,1.5l-1.6,7.1l-1.6,7.1c-0.2,0.8,0.4,1.5,1.2,1.5h17
	c0.9,0,1.7-0.7,1.9-1.5l1.5-7.1l1.5-7.1v0C150.5,25.3,150,24.7,149.1,24.7L149.1,24.7z"/>
<path class="st1" d="M144.2,46.6h-17c-0.9,0-1.7,0.7-1.9,1.5l-2.4,10.6l-2.4,10.6c-0.2,0.8-0.5,2.2-0.7,3l-2.3,10.8l-2.3,10.8
	c-0.2,0.8-0.5,2.2-0.8,3c0,0-3.2,9.4-8.5,9.3c-0.2,0-0.4,0-0.7,0c-2.6,0-4.6-0.1-4.6-0.1h0c-0.9,0-1.7,0.7-1.9,1.5L97,115l-1.8,7.4
	c-0.2,0.8,0.3,1.5,1.2,1.5c3,0,9.8,0.1,13.9,0.1c13.3,0,20.4-7.4,24.9-28.6l5.3-24.4l4.9-22.9C145.6,47.3,145.1,46.6,144.2,46.6
	L144.2,46.6z"/>
<path class="st1" d="M215.5,50.5l-0.4,1.5c0,0,0,0,0,0l-3.4,11.9l-3.3,11.9c-0.2,0.8-1.1,1.5-2,1.5h-17.7c-13.5,0-16.7-10.5-13.5-26
	c3.3-15.9,9.7-25.7,22.9-26.7C216.3,23.1,219.9,35.9,215.5,50.5L215.5,50.5z M227.7,76.4c0,0,8.4-20.3,10.3-32
	c2.6-15.7-5.3-38.5-35.6-38.5c-30.2,0-43.3,21.7-48.3,45.4c-5,23.8,1.6,44.7,31.6,44.5l23.7-0.1l22.1-0.1c0.9,0,1.7-0.7,1.9-1.5
	l3.9-14.7c0.2-0.8-0.3-1.5-1.2-1.5l-3.7,0l-3.7,0c-0.7,0-1.1-0.5-1.1-1.1C227.6,76.6,227.6,76.5,227.7,76.4L227.7,76.4z"/>
</svg>
