<svg class="icono" width="50" height="50" xmlns="http://www.w3.org/2000/svg" viewBox="0 0 50 50">
    <path fill="#24292f" d="M41.6 3.2H3.19C1.43 3.2 0 4.65 0 6.43v38.34C0 46.55 1.43 48 3.19 48H41.6c1.76 0 3.2-1.45 3.2-3.23V6.43c0-1.78-1.44-3.23-3.2-3.23zM13.54 41.6H6.9V20.22h6.65V41.6zm-3.32-24.3c-2.13 0-3.85-1.73-3.85-3.85S8.09 9.6 10.22 9.6c2.12 0 3.85 1.73 3.85 3.85 0 2.13-1.72 3.85-3.85 3.85zm28.21 24.3h-6.64V31.2c0-2.48-.5-5.67-3.45-5.67-3.46 0-3.99 2.7-3.99 5.49V41.6h-6.64V20.22h6.37v2.92h.9c.89-1.68 3.06-3.45 6.29-3.45 6.72 0 7.97 4.43 7.97 10.19V41.6z"/>
</svg>