<?xml version="1.0" encoding="utf-8"?>
<svg version="1.1"
	 id="svg2" inkscape:export-filename="/home/hossein/mysql.png" inkscape:export-xdpi="90" inkscape:export-ydpi="90" inkscape:version="0.44" sodipodi:docbase="/home/hossein" sodipodi:docname="mysql.svg" sodipodi:version="0.32" xmlns:cc="http://web.resource.org/cc/" xmlns:dc="http://purl.org/dc/elements/1.1/" xmlns:inkscape="http://www.inkscape.org/namespaces/inkscape" xmlns:rdf="http://www.w3.org/1999/02/22-rdf-syntax-ns#" xmlns:sodipodi="http://sodipodi.sourceforge.net/DTD/sodipodi-0.dtd" xmlns:svg="http://www.w3.org/2000/svg"
	 xmlns="http://www.w3.org/2000/svg" xmlns:xlink="http://www.w3.org/1999/xlink" width="50" height="50" viewBox="0 0 319.7 154.3"
	 style="enable-background:new 0 0 319.7 154.3;" xml:space="preserve">
<style type="text/css">
	.st0{fill:#E48C00;}
	.st1{display:none;fill:#E48C00;}
	.st2{fill:#015F8B;}
</style>
<sodipodi:namedview  bordercolor="#666666" borderopacity="1.0" gridtolerance="10000" guidetolerance="10" height="100px" id="base" inkscape:current-layer="layer2" inkscape:cx="321.9964" inkscape:cy="118.99361" inkscape:document-units="px" inkscape:pageopacity="0" inkscape:pageshadow="2" inkscape:window-height="691" inkscape:window-width="1022" inkscape:window-x="0" inkscape:window-y="26" inkscape:zoom="0.9899495" objecttolerance="10" pagecolor="white" width="400px">
	</sodipodi:namedview>
<g id="layer1" transform="translate(-1.12456,-14.78342)" inkscape:groupmode="layer" inkscape:label="Layer 1">
</g>
<path id="path1961" sodipodi:nodetypes="cccsssssscccssccccssssccccccssssscccccssssssccccscccccscccccc" class="st0" d="
	M127.1,149.3l-5.3-4.9l-18-0.4c-15.3-0.3-18.6-0.7-22.3-2.6c-8-4.1-8.9-6.3-9.3-24.5c-0.6-21.3,0.3-27.3,4.3-31.9
	c4.4-5.1,9.4-6.4,27-7c24.2-0.9,35.5,2,38.9,10.2c1.9,4.7,2.3,40.7,0.4,45.6c-0.6,1.7-2.4,4.1-4,5.4l-2.8,2.2l6.2,5.9
	c3.4,3.2,6.2,6.1,6.2,6.3c0,0.3-3.6,0.5-8,0.4C132.5,154.2,132.3,154.1,127.1,149.3z M105,129.3l-5.2-5h8.3c8.2,0,8.5,0.1,13.4,4.4
	c7.6,6.7,8,5.8,8-17.1c0-24.7,1.2-23.3-20.5-23.3c-21.7,0-20.5-1.3-20.5,22.9c0,23.1,0,23.1,13,23.1l8.6,0L105,129.3z M0,139.4v-5.1
	h21.9c26.6,0,27.1-0.2,26.6-9.8c-0.4-8.3-2-9-18.1-9c-14.5,0-21.9-1.9-26.5-6.7c-2.7-2.8-3.3-4.4-3.6-10.3
	C-0.2,89.7,2.1,85,8.9,81.2c4.8-2.7,5.7-2.8,30.2-3.2l25.2-0.4v5.1v5.1l-21.3,0.1c-11.7,0.1-22.6,0.5-24.1,0.9
	c-2.5,0.7-2.8,1.4-3.1,7.5c-0.5,9.5,0,9.7,19.6,10.4c14.6,0.5,16.7,0.8,21.1,3.3c6.6,3.7,7.9,6.5,7.5,16.2
	c-0.4,8.9-1.7,11.2-9.2,15.2c-4.1,2.2-6.4,2.4-29.6,2.7L0,144.5V139.4z M166.8,143.1c-6.3-1.5-11.3-4.9-13-9
	c-1.1-2.7-1.5-10.1-1.5-29.6v-26h7.2h7.2l0.3,26c0.3,25,0.4,26.1,2.6,28c2.1,1.7,5,1.9,24.4,1.9h22v5v5l-22.4-0.1
	C181.2,144.2,169.2,143.6,166.8,143.1z"/>
<path id="path1895" class="st1" d="M369.9,138.1c-5.3,0-9.5,4.3-9.5,9.5c0,5.3,4.3,9.5,9.5,9.5c5.3,0,9.5-4.3,9.5-9.5
	C379.4,142.3,375.1,138.1,369.9,138.1z M370,140.5c3.9,0,7,3.2,7,7.1c0,3.9-3.1,7.1-7,7.1c-3.9,0-7.1-3.2-7.1-7.1
	C362.9,143.7,366.1,140.5,370,140.5z"/>
<path id="text1905" sodipodi:nodetypes="cssscccccccccssscsccccscc" class="st0" d="M231,138.6c0.5,0,0.9-0.1,1.1-0.3
	c0.2-0.2,0.3-0.6,0.3-1c0-0.5-0.1-0.8-0.3-1c-0.2-0.2-0.6-0.3-1.1-0.3H230v2.7H231 M230,140.5v4h-2.5v-10.6h3.8
	c1.3,0,2.2,0.2,2.8,0.7c0.6,0.5,0.9,1.2,0.9,2.2c0,0.7-0.2,1.3-0.5,1.7c-0.3,0.4-0.8,0.8-1.4,1c0.3,0.1,0.7,0.3,0.9,0.6
	c0.3,0.3,0.6,0.8,0.8,1.4l1,3h-2.3l-1.2-2.6c-0.2-0.5-0.5-0.9-0.7-1.1c-0.2-0.2-0.6-0.3-1-0.3H230"/>
<path class="st2" d="M83,61.7v-3.8l18.7-0.3c17.6-0.2,18.8-0.4,20-1.9c0.7-0.9,1.1-2.6,1-3.7l-0.2-2.1l-15.8-0.4
	c-14.7-0.4-16-0.5-18.9-2.4c-4.9-3-5.2-4.1-5.2-18.2V16.3l5.2,0l5.2,0v11.9c0,15.8-0.8,15.1,16.5,15.1h13l0.2-13.9l0.2-13.9h5.4h5.4
	l0,19.7c0,23.2-0.3,24.2-7.1,27.6c-4,2-4.8,2.1-23.9,2.3L83,65.5V61.7z"/>
<path class="st2" d="M32.7,50.3c-1.4-0.4-3.1-1.4-3.8-2.2c-0.7-0.8-5.1-9.9-9.7-20.1L10.8,9.3l0,20.5l0,20.5H5.4H0V27.7
	C0,1.5-0.1,2.1,7.1,0.6c5.3-1.1,9.1-0.2,11.8,2.7c0.9,1,5.2,10,9.4,19.9s8,18.1,8.2,18.1c0.2,0,4-8.1,8.3-17.9
	C49.3,13.1,53.7,4.4,55,3.1c3.4-3.5,8.3-4,14.9-1.6c3.8,1.4,4.1,3.4,4.1,26.9v22h-5.4h-5.4l0-20.5c0-24,1.1-24.1-10,0.6
	c-3.8,8.4-7.4,16.2-8.1,17.2c-0.7,1-2.6,2.2-4.2,2.7C37.3,51.3,36.2,51.3,32.7,50.3z"/>
<g>
	<path class="st2" d="M315,127c-2.4-1.4-7.6-3.8-11.7-5.3c-11.3-4.2-19.8-10.4-20.3-15c-0.2-1.4,8-4.9,15.1-6.5
		c4.8-1.1,5.9-1.6,5-2.5c-2.7-2.6-18.1-9.4-24.4-10.8c-3.7-0.8-7.6-2.1-8.7-2.8c-2-1.4-8.1-10.6-17.5-26.7
		c-6.5-11.2-13-18.6-23.2-26.3c-13.2-10.1-23.7-14.3-36.1-14.3c-3.5,0-7-0.8-9.9-2.4c-8.8-4.7-16.5-5.8-17.4-2.5
		c-0.5,1.8,0.6,3.2,8.5,12.4c2.8,3.2,6.6,9.3,9.1,14.6c2.7,5.9,5.6,10.4,8.1,12.8c4.5,4.3,4.6,4.6,2.9,12.4
		c-1.8,8.6-1.7,13.8,0.3,20.7c1.8,6.1,6,13.1,8.2,13.5c0.7,0.1,1.1-2.1,1.1-6c0-6.2,1.2-11,3.7-14.6c1.2-1.7,1.6-1.3,5.4,5.2
		c5.1,8.8,14,20.2,19.9,25.3c6.7,5.8,1.5,3.1-7.7-3.9c-4.4-3.4-9.4-8.4-11.3-11.1c-3.1-4.7-3.3-4.8-3.7-2.4c-0.2,1.4-0.3,4-0.2,5.7
		c0.4,5.2-4.3,8.5-9.4,6.5c-2.8-1.1-6.8-6.5-9.1-12.3c-2.8-7.1-3.6-15.8-2.2-25.1c1.1-7.9,1.1-8-1-9.9c-3.1-2.7-6.7-8.5-10.8-17.2
		c-2.1-4.5-5.4-9.4-8.2-12.4c-2.6-2.7-5.4-5.8-6.2-6.8c-2.2-2.9-2.6-8.8-0.8-11.6c2.9-4.6,14.7-3.7,24,1.7c2.1,1.3,5.3,1.9,8.8,1.9
		c3,0,7.5,0.4,9.9,0.9c10.4,2.3,25.9,11.5,36.5,21.6c7.1,6.8,9.8,10.5,23.7,32.9l8,13l7,2.3c12.7,4.1,31.1,15.4,30.4,18.7
		c-0.2,0.8-2.2,2-4.6,2.7c-10.6,3.2-14.5,4.8-14.1,5.7c0.3,0.6,4,2.9,8.4,5.2c7.1,3.8,19.6,13.7,18.7,14.9
		C319.5,129.3,317.4,128.4,315,127z"/>
	<path class="st2" d="M195.8,31.3c-3.9-4.9-3.9-4.8-1.2-5.1c3.1-0.4,5,1.2,5.3,4.6C200.3,34.9,198.8,35.1,195.8,31.3z"/>
</g>
</svg>
